<svg width="709" height="665" viewBox="0 0 709 665" fill="none" xmlns="http://www.w3.org/2000/svg">
<g clip-path="url(#clip0_2_1357)">
<path fill-rule="evenodd" clip-rule="evenodd" d="M202.325 125.275C114.17 200.431 -90.0133 422.403 44.7796 528.277C121.467 588.445 280.101 346.46 335.622 300.056C343.055 293.851 365.944 272.222 377.819 283.364C423.143 325.836 245.655 635.549 391.824 566.336C488.771 520.368 758.539 197.241 676.639 85.6865C618.76 6.77265 497.745 54.0074 435.879 101.286C402.702 126.673 375.689 158.876 342.149 183.826C339.747 185.618 335.94 191.342 334.58 188.72C325.062 170.543 492.261 -37.8403 348.766 6.24833C328.144 12.6279 315.136 21.498 297.777 33.6453C270.945 52.2595 218.732 111.336 202.325 125.275Z" fill="#E6E6FA"/>
<path fill-rule="evenodd" clip-rule="evenodd" d="M349.174 188.589L329.866 199.557L309.652 210.918L292.928 181.773C284.34 168.198 270.888 158.131 255.118 153.476C239.347 148.822 222.354 149.904 207.356 156.517C204.872 157.584 202.464 158.81 200.15 160.187C184.874 169.194 173.935 183.681 169.736 200.462C165.537 217.243 168.424 234.945 177.76 249.675L229.52 331.648L211.843 342.135L192.717 353.496L140.05 271.873C125.531 249.058 120.352 221.846 125.522 195.548C130.693 169.25 145.843 145.754 168.015 129.644H168.242C171.079 127.558 174.029 125.618 177.08 123.833C202.355 108.943 232.729 104.339 261.525 111.034C290.32 117.728 315.179 135.172 330.637 159.532L349.174 188.589Z" fill="#FF4387"/>
<path fill-rule="evenodd" clip-rule="evenodd" d="M211.843 342.004L192.716 353.365L140.05 271.742C125.57 248.939 120.413 221.757 125.582 195.489C130.752 169.221 145.878 145.749 168.015 129.644C159.894 136.108 153.296 144.167 148.662 153.284C142.529 167.534 139.564 182.866 139.959 198.29C140.63 219.295 146.637 239.82 157.454 258.065C171.595 280.393 198.019 320.899 211.843 342.004Z" fill="black"/>
<path fill-rule="evenodd" clip-rule="evenodd" d="M329.866 199.557L309.652 210.918L292.928 181.773C284.34 168.198 270.888 158.131 255.118 153.476C239.348 148.822 222.355 149.904 207.356 156.517L205.997 155.862C233.191 137.597 268.407 136.417 295.058 156.648C309.199 167.353 318.717 182.254 328.054 196.848C328.733 197.722 329.277 198.596 329.866 199.557Z" fill="black"/>
<path fill-rule="evenodd" clip-rule="evenodd" d="M259.524 517.79C226.755 466.142 159.812 355.2 159.812 355.2L184.649 340.562L402.203 212.229L501.915 374.819C509.72 386.888 514.801 400.407 516.827 414.494C532.328 526.966 330.501 629.694 259.524 517.79Z" fill="#FF4387"/>
<path fill-rule="evenodd" clip-rule="evenodd" d="M259.524 517.79C226.755 466.143 159.812 355.2 159.812 355.2L184.649 340.562L236.726 421.835C236.726 421.835 264.917 469.026 281.325 491.748C294.695 510.1 311.827 529.544 334.807 536.536C357.786 543.527 384.663 539.114 406.69 531.817C421.046 526.821 434.596 519.892 446.938 511.236C473.543 492.84 494.618 472.959 507.762 443.77C512.104 434.742 515.153 425.188 516.827 415.368C516.807 415.15 516.807 414.931 516.827 414.713C532.328 526.966 330.501 629.694 259.524 517.79Z" fill="black"/>
<path d="M353.072 388.234C368.492 388.234 380.992 376.183 380.992 361.317C380.992 346.452 368.492 334.401 353.072 334.401C337.653 334.401 325.153 346.452 325.153 361.317C325.153 376.183 337.653 388.234 353.072 388.234Z" fill="#FFB1CD"/>
<path fill-rule="evenodd" clip-rule="evenodd" d="M368.074 367.697L353.344 376.436L375.508 438.833L414.305 415.98L368.074 367.697Z" fill="#FFB1CD"/>
<path fill-rule="evenodd" clip-rule="evenodd" d="M411.721 416.068C411.195 416.375 410.65 416.652 410.09 416.898L403.064 420.787C400.118 422.36 397.218 424.064 394.362 425.768C388.334 429.395 382.442 433.109 376.233 436.692C375.809 436.899 375.4 437.132 375.009 437.391C374.747 437.571 374.504 437.776 374.284 438.003L374.782 438.833L376.051 438.352L377.819 437.347C386.476 432.322 394.725 426.686 403.563 421.923L410.634 418.121C410.634 418.121 412.174 417.379 412.718 417.029C412.88 416.945 413.013 416.818 413.101 416.663C413.19 416.508 413.23 416.331 413.217 416.155C413.069 415.669 412.787 415.231 412.401 414.888C411.766 414.232 410.86 413.49 410.497 413.14L403.019 405.362C398.486 400.599 393.682 395.837 389.105 390.986C386.113 387.797 383.122 384.519 380.04 381.111C379.043 379.975 377.547 378.883 376.414 377.747L375.915 377.222C376.369 376.479 377.32 375.038 377.411 374.775C378.125 373.197 378.687 371.559 379.088 369.881C379.529 368.228 379.862 366.55 380.085 364.857C380.638 360.322 380.143 355.726 378.635 351.398C377.099 347.074 374.538 343.154 371.156 339.95C368.435 337.631 365.234 335.895 361.765 334.855C358.296 333.816 354.638 333.497 351.033 333.92C344.497 334.348 338.33 336.996 333.628 341.392C333.112 341.771 332.68 342.247 332.359 342.791C332.334 342.876 332.334 342.967 332.359 343.053L332.994 343.533H333.266C333.764 343.227 334.036 342.659 334.489 342.222C339.067 338.13 344.981 335.704 351.214 335.362C354.613 334.958 358.062 335.252 361.334 336.223C364.607 337.195 367.63 338.822 370.204 340.999C373.44 344.045 375.879 347.79 377.32 351.923C378.773 356.051 379.238 360.443 378.68 364.769C378.455 366.401 378.137 368.021 377.728 369.619C377.323 371.214 376.792 372.777 376.142 374.295C376.142 374.557 374.964 376.13 374.601 376.785C374.524 376.943 374.484 377.114 374.484 377.288C374.484 377.462 374.524 377.633 374.601 377.79L375.462 378.839C376.55 379.932 378.091 380.98 379.043 382.116C381.898 385.525 384.889 388.802 388.107 392.035C392.64 396.885 397.172 401.648 402.022 406.411L409.455 414.189C409.772 414.538 410.543 415.15 411.177 415.718L411.721 416.068Z" fill="black"/>
<path fill-rule="evenodd" clip-rule="evenodd" d="M382.986 241.592L382.668 242.116C382.351 242.772 382.079 243.514 381.807 244.213C378.498 252.166 375.507 260.293 372.289 268.246C371.201 270.911 370.068 273.533 368.935 276.198L367.485 279.563L368.391 279.956C368.935 278.864 369.434 277.728 369.978 276.636C371.156 274.014 372.244 271.348 373.332 268.639C376.55 260.643 379.45 252.559 382.668 244.563C382.94 243.82 383.257 243.165 383.529 242.422C383.516 242.233 383.516 242.043 383.529 241.854L382.986 241.592Z" fill="black"/>
<path fill-rule="evenodd" clip-rule="evenodd" d="M391.824 241.067L391.552 241.504C391.441 241.759 391.35 242.023 391.28 242.291C389.784 246.049 388.47 249.85 387.201 253.652C383.937 263.571 381.127 273.577 377.773 283.496L378.816 283.802C382.124 273.926 384.934 263.876 388.152 253.958C389.422 250.156 390.736 246.354 392.186 242.597L392.458 241.854C392.48 241.68 392.48 241.504 392.458 241.33L391.824 241.067Z" fill="black"/>
<path fill-rule="evenodd" clip-rule="evenodd" d="M399.71 249.151C399.71 249.807 399.302 250.418 399.121 251.074C397.58 256.754 396.13 262.478 394.362 268.159C392.595 273.839 391.099 278.209 389.422 283.19L388.198 286.948L389.15 287.254C389.694 285.768 390.283 284.282 390.782 282.884C392.867 276.898 394.815 270.868 396.583 264.75C397.761 260.687 398.985 256.623 399.892 252.516C400.118 251.511 400.3 250.462 400.481 249.413L399.71 249.151Z" fill="black"/>
<path fill-rule="evenodd" clip-rule="evenodd" d="M406.328 265.1C406.285 265.419 406.285 265.742 406.328 266.061C405.512 269.688 404.56 273.315 403.517 276.898C402.475 280.481 401.07 284.85 399.665 288.739L400.753 289.089C402.112 285.2 403.472 281.224 404.605 277.204C405.738 273.184 406.554 269.906 407.279 266.28C407.322 265.946 407.322 265.608 407.279 265.275V265.1H406.328Z" fill="black"/>
<path fill-rule="evenodd" clip-rule="evenodd" d="M412.492 281.311L411.948 282.797L411.676 283.802C411.177 285.768 410.724 287.734 410.225 289.7L411.358 289.963C411.902 287.69 412.537 285.593 412.99 283.19L413.262 281.486L412.492 281.311Z" fill="black"/>
<path fill-rule="evenodd" clip-rule="evenodd" d="M306.842 493.67C306.842 493.146 307.114 492.665 307.204 492.185V491.18C308.065 483.621 309.198 476.105 310.513 468.633C311.963 460.287 313.64 452.029 315.634 443.814L314.501 443.552C312.507 451.767 310.785 460.054 309.334 468.415C308.02 475.93 306.932 483.49 306.026 491.049V492.054C306.026 492.578 306.026 493.059 306.026 493.583L306.842 493.67Z" fill="black"/>
<path fill-rule="evenodd" clip-rule="evenodd" d="M315.136 501.71C315.15 501.565 315.15 501.419 315.136 501.273C315.181 500.691 315.181 500.107 315.136 499.526C315.771 492.928 316.451 486.417 317.312 479.775C317.856 475.886 318.49 471.997 319.125 468.152C319.125 467.147 319.397 466.186 319.578 465.225H318.536C318.536 466.186 318.082 467.147 317.901 468.109C317.131 471.954 316.632 475.886 316.133 479.775C315.272 486.373 314.592 492.884 314.003 499.569C314.003 500.181 314.003 500.749 314.003 501.361C313.986 501.506 313.986 501.652 314.003 501.798L315.136 501.71Z" fill="black"/>
<path fill-rule="evenodd" clip-rule="evenodd" d="M325.198 501.055C325.198 500.749 325.198 500.4 325.424 500.094C325.447 499.876 325.447 499.656 325.424 499.438C325.878 494.501 326.286 489.519 326.739 484.582H325.606C325.198 488.951 324.745 493.321 324.427 497.69C324.382 498.462 324.382 499.235 324.427 500.006C324.427 500.356 324.427 500.662 324.427 501.011L325.198 501.055Z" fill="black"/>
<path fill-rule="evenodd" clip-rule="evenodd" d="M335.033 505.818C335.033 505.381 335.351 504.944 335.486 504.507C335.622 504.07 335.486 503.589 335.486 503.152C335.894 500.268 336.212 497.385 336.529 494.413C336.529 493.845 336.529 493.277 336.529 492.709C336.529 492.141 336.529 492.403 336.529 492.272H335.532V492.709C335.532 493.277 335.532 493.845 335.215 494.413C334.807 497.297 334.489 500.181 334.127 503.152C334.127 503.589 334.127 504.07 334.127 504.507C334.081 504.957 334.081 505.411 334.127 505.861L335.033 505.818Z" fill="black"/>
<path fill-rule="evenodd" clip-rule="evenodd" d="M248.148 113.652C247.694 115.574 247.287 117.497 246.924 119.463C246.38 122.391 245.836 125.362 245.247 128.202C244.794 130.3 244.341 132.353 243.706 134.363L244.658 134.626C245.292 132.616 245.836 130.518 246.29 128.421C246.924 125.493 247.377 122.522 247.876 119.682C248.193 117.716 248.51 115.749 248.918 113.827L248.148 113.652Z" fill="white"/>
<path fill-rule="evenodd" clip-rule="evenodd" d="M255.218 112.953C254.221 117.104 253.178 121.255 252.317 125.493C252 126.935 251.683 128.377 251.456 129.863V130.955H252.408C252.634 129.732 252.952 128.552 253.178 127.372C254.176 122.566 255.082 117.715 256.124 112.953H255.218Z" fill="white"/>
<path fill-rule="evenodd" clip-rule="evenodd" d="M260.385 114.395V114.788C260.019 116.01 259.716 117.25 259.478 118.502C259.206 119.769 258.844 120.992 258.663 122.26V122.697H259.569L261.518 114.482L260.385 114.395Z" fill="white"/>
<path fill-rule="evenodd" clip-rule="evenodd" d="M265.416 115.968C265.416 115.968 265.416 115.968 265.144 116.23C265.1 116.636 265.1 117.046 265.144 117.453H266.141C266.323 117.095 266.445 116.712 266.504 116.317C266.504 116.317 266.504 116.099 266.504 115.968H265.416Z" fill="white"/>
<path fill-rule="evenodd" clip-rule="evenodd" d="M549.551 241.067C559.123 241.076 568.477 243.82 576.431 248.953C584.386 254.086 590.583 261.378 594.24 269.906C597.896 278.434 598.848 287.816 596.976 296.865C595.103 305.915 590.489 314.226 583.718 320.748C576.946 327.27 568.321 331.71 558.932 333.507C549.544 335.304 539.813 334.378 530.971 330.844C522.129 327.311 514.571 321.329 509.255 313.656C503.938 305.983 501.1 296.962 501.1 287.734C501.1 281.602 502.353 275.53 504.789 269.865C507.224 264.201 510.794 259.054 515.293 254.72C519.793 250.386 525.135 246.95 531.013 244.607C536.891 242.265 543.19 241.062 549.551 241.067ZM549.551 269.732C553.244 269.732 556.854 270.787 559.925 272.765C562.996 274.744 565.389 277.555 566.803 280.845C568.216 284.134 568.586 287.754 567.865 291.246C567.145 294.738 565.366 297.946 562.755 300.464C560.143 302.981 556.816 304.696 553.194 305.391C549.571 306.085 545.817 305.729 542.405 304.366C538.993 303.004 536.076 300.696 534.024 297.736C531.973 294.775 530.877 291.295 530.877 287.734C530.877 282.959 532.845 278.381 536.347 275.004C539.849 271.628 544.598 269.732 549.551 269.732Z" fill="#FF4387"/>
<path fill-rule="evenodd" clip-rule="evenodd" d="M513.7 321.904L512.249 317.228C541.936 338.464 565.142 329.594 582.365 309.363C587.602 303.705 591.162 296.791 592.669 289.348C594.177 281.905 593.576 274.208 590.931 267.066C588.464 261.284 584.88 256.005 580.371 251.511C579.782 250.899 596.098 266.017 597.956 269.95C607.882 291.186 600.223 306.785 585.9 323.258C580.598 329.376 558.072 337.547 549.641 336.629C536.618 334.541 524.298 329.493 513.7 321.904Z" fill="black"/>
<path d="M628.765 57.1259L543.186 259.803L568.709 269.82L654.288 67.1424L628.765 57.1259Z" fill="#FF4387"/>
<path d="M650.261 65.5449L628.763 116.457L687.576 139.538L709.073 88.6258L650.261 65.5449Z" fill="#FF4387"/>
<path d="M636.114 110.171L632.816 117.982L687.682 139.514L690.98 131.704L636.114 110.171Z" fill="black"/>
<path d="M616.883 134.35L604.203 164.38L641.564 179.042L654.244 149.013L616.883 134.35Z" fill="#FF4387"/>
<path d="M615.228 159.591L611.929 167.402L641.609 179.05L644.907 171.239L615.228 159.591Z" fill="black"/>
<path fill-rule="evenodd" clip-rule="evenodd" d="M409.591 80.9676L412.446 79.8752C416.163 78.2148 419.653 76.2923 423.414 74.7629C426.493 73.5061 429.659 72.455 432.887 71.6169C455.141 66.0675 466.88 69.9564 474.449 78.1274C482.018 86.2985 484.964 96.8291 489.995 107.097C495.026 117.366 501.417 126.498 513.7 131.261C522.539 134.712 532.354 135.067 541.438 132.266C550.59 129.161 559.288 124.932 567.317 119.682C570.807 117.628 574.298 115.312 577.787 113.521L576.79 111.729C573.164 113.521 569.538 115.487 565.958 117.497C558.015 122.447 549.496 126.48 540.577 129.513C532.129 132.153 522.989 131.86 514.742 128.683C501.145 123.483 495.253 112.297 490.086 100.98C484.239 88.2211 479.299 75.331 466.789 69.738C458.994 66.2424 448.207 65.3685 432.343 69.4758C428.16 70.6027 424.082 72.0643 420.151 73.8454C417.037 75.115 414.009 76.5744 411.086 78.2149C410.361 78.6519 409.681 79.1324 409.001 79.6131L409.591 80.9676Z" fill="#9433F5"/>
<path fill-rule="evenodd" clip-rule="evenodd" d="M125.909 537.016C126.453 534.569 127.269 532.122 128.039 529.675C135.155 507.391 151.789 485.106 171.505 478.727C185.918 474.095 201.645 478.115 215.514 496.729C227.525 512.896 230.653 537.235 233.372 559.869C235.412 576.779 237.225 592.771 242.029 603.914C243.127 607.136 244.901 610.106 247.24 612.639C249.579 615.172 252.433 617.215 255.626 618.639C262.651 621.392 272.215 620.562 285.494 614.575C289.075 612.915 292.656 611.124 296.191 609.201C299.726 607.278 303.08 605.181 306.434 603.084L305.21 601.205C301.176 603.477 296.961 605.574 292.701 607.846C289.845 609.201 287.035 610.599 284.18 611.866C271.988 617.328 263.24 618.333 256.986 615.799C254.191 614.5 251.698 612.669 249.657 610.416C247.616 608.163 246.07 605.535 245.111 602.69C240.579 591.723 238.675 576.036 236.635 559.476C233.78 536.317 230.335 511.411 218.007 495.025C203.096 475.144 186.281 471.167 170.735 476.192C150.339 482.878 131.983 505.643 125.864 529.02C125.26 531.559 124.791 534.125 124.459 536.71L125.909 537.016Z" fill="#9433F5"/>
<path fill-rule="evenodd" clip-rule="evenodd" d="M625.649 234.513C625.872 234.664 626.116 234.782 626.374 234.863C627.403 235.066 628.454 235.139 629.502 235.081C641.364 235.695 653.027 231.947 662.135 224.594C668.073 219.706 672.995 213.775 676.639 207.116C679.005 202.713 680.976 198.123 682.531 193.396L680.582 192.74C678.891 197.275 676.798 201.661 674.327 205.849C670.782 212.184 666.067 217.841 660.413 222.541C651.825 229.524 640.814 233.115 629.593 232.591C628.597 232.525 627.597 232.525 626.601 232.591H625.831L625.649 234.513Z" fill="#279FF2"/>
<path fill-rule="evenodd" clip-rule="evenodd" d="M189.136 515.824C190.677 517.179 192.127 518.621 193.668 520.194C199.699 525.82 204.736 532.358 208.58 539.551C213.367 548.539 215.171 558.729 213.747 568.739C210.755 587.353 200.149 608.065 198.201 627.422C197.159 634.31 197.874 641.34 200.282 647.902C202.691 654.465 206.721 660.363 212.024 665.087L213.611 663.558C210.764 660.736 208.297 657.58 206.268 654.163C201.666 646.075 199.811 636.798 200.965 627.64C202.778 608.196 213.384 587.659 216.33 569.132C217.798 558.636 215.884 547.958 210.846 538.546C207.039 530.991 201.761 524.211 195.3 518.577C193.647 517.238 191.922 515.984 190.133 514.819L189.136 515.824Z" fill="#279FF2"/>
<path fill-rule="evenodd" clip-rule="evenodd" d="M87.5653 250.986C85.9409 247.418 85.3158 243.5 85.7524 239.626C86.1208 237.125 87.032 234.728 88.4265 232.591C92.279 226.561 99.3495 221.885 105.74 216.642C112.648 211.865 117.488 204.803 119.337 196.804C120.878 187.366 117.207 179.02 112.675 170.805C107.8 163.449 104.16 155.397 101.888 146.948C101.146 142.754 101.393 138.452 102.613 134.363C104.495 128.489 107.577 123.036 111.678 118.327C115.797 113.567 120.448 109.258 125.547 105.481L124.368 103.951C119.043 107.772 114.192 112.17 109.91 117.06C105.548 121.949 102.263 127.643 100.256 133.795C98.9068 138.219 98.6124 142.88 99.3949 147.428C101.655 156.144 105.358 164.451 110.363 172.029C114.669 179.807 118.295 187.628 116.89 196.498C115.077 203.965 110.48 210.528 103.972 214.938C97.3552 220.356 90.0581 225.162 86.1149 231.411C84.5247 233.855 83.5471 236.623 83.2596 239.495C83.0224 243.719 83.9612 247.928 85.9789 251.685L87.5653 250.986Z" fill="#279FF2"/>
<path fill-rule="evenodd" clip-rule="evenodd" d="M565.641 377.179C565.641 377.179 565.641 377.179 565.369 377.179C565.097 377.179 565.006 378.009 564.779 378.446C563.012 382.16 561.29 385.743 558.525 390.768C556.621 394.307 554.219 398.589 550.956 404.139C550.258 405.196 549.623 406.29 549.052 407.416C548.844 407.916 548.662 408.427 548.508 408.945L550.14 409.863C550.502 409.426 550.91 409.033 551.228 408.596C551.545 408.159 552.497 406.367 553.131 405.319C557.256 398.196 560.021 393.171 562.196 389.064C564.372 384.956 565.641 382.247 567.091 379.058C567.091 378.708 567.59 378.402 567.544 378.052C567.499 377.703 567.544 378.052 567.544 377.834L565.641 377.179Z" fill="#F56C2C"/>
<path fill-rule="evenodd" clip-rule="evenodd" d="M540.849 386.617L543.296 388.103C551.5 392.996 559.522 398.065 567.68 403.003C569.493 404.095 571.306 405.231 573.165 406.236L574.615 406.935L575.567 405.449L574.705 404.75C573.482 403.92 572.167 403.177 570.898 402.391C564.598 398.546 558.298 394.657 551.953 390.855C548.931 388.962 545.91 387.127 542.888 385.35C542.571 385.35 542.344 384.825 541.982 384.782C541.619 384.738 541.982 384.782 541.982 384.782L541.03 386.223L540.849 386.617Z" fill="#F56C2C"/>
<path fill-rule="evenodd" clip-rule="evenodd" d="M552.451 382.379C552.451 383.165 552.769 383.951 552.995 384.694C555.08 391.642 557.21 398.458 559.522 405.275C560.156 407.197 560.927 409.076 561.697 410.955L563.601 410.256C563.057 408.77 562.604 407.241 562.151 405.886C560.202 399.769 558.525 393.564 556.395 387.491C556.024 386.332 555.585 385.194 555.08 384.082C554.718 383.34 554.264 382.684 553.856 381.941L552.451 382.379Z" fill="#F56C2C"/>
<path fill-rule="evenodd" clip-rule="evenodd" d="M543.84 400.031C545.562 399.682 547.33 399.376 549.098 398.939C553.131 397.89 557.12 396.536 561.063 395.225C566.221 393.596 571.25 391.61 576.11 389.282C576.639 389.017 577.154 388.725 577.651 388.408L576.926 386.879L574.252 387.884C570.762 389.326 567.272 390.724 563.692 391.991C558.298 393.87 552.769 395.312 547.421 397.104C546.061 397.541 544.746 398.109 543.387 398.633L543.84 400.031Z" fill="#F56C2C"/>
<path fill-rule="evenodd" clip-rule="evenodd" d="M95.0889 273.839C94.3184 274.757 93.548 275.587 92.8681 276.504C90.058 280.175 87.5651 284.107 84.9817 287.909C78.2284 297.959 71.3846 307.965 64.9486 318.146C64.2234 319.282 63.5436 320.462 62.8638 321.598L64.4048 322.56C64.807 322.128 65.1852 321.676 65.5379 321.205C66.3537 320.156 67.0789 319.02 67.804 317.884C76.5062 305.038 84.8004 291.667 93.6385 279.083C94.1371 278.383 94.6357 277.684 95.0889 276.942C95.5422 276.199 95.9501 275.456 96.358 274.669L95.0889 273.839Z" fill="#F56C2C"/>
<path fill-rule="evenodd" clip-rule="evenodd" d="M53.1646 284.37C54.5696 285.462 55.9746 286.598 57.6969 287.603C71.0221 296.692 85.7523 303.814 98.7603 313.296L99.9387 311.854C95.4064 308.621 91.1006 305.606 86.3416 302.678C77.866 297.347 69.0732 292.366 60.5524 286.991C59.6912 286.467 58.8754 285.899 58.0142 285.418L54.0711 283.146L53.1646 284.37Z" fill="#F56C2C"/>
<path fill-rule="evenodd" clip-rule="evenodd" d="M73.7417 276.504C73.7417 277.291 73.7417 278.034 73.7417 278.864C73.7417 279.694 73.7417 279.869 73.7417 280.393C74.4669 285.462 75.4187 290.531 76.4158 295.599C77.8964 303.173 79.4978 310.718 81.2201 318.233C81.5827 319.719 81.8546 321.248 82.3078 322.603L82.7157 323.695L84.71 323.302C84.71 322.822 84.71 322.341 84.71 321.86C84.71 321.38 84.2568 319.632 84.0302 318.539C81.356 305.824 78.3647 293.196 76.2345 280.393C76.2345 279.694 76.2344 278.951 75.9172 278.252C75.5999 277.553 75.4639 276.898 75.2373 276.155L73.7417 276.504Z" fill="#F56C2C"/>
<path fill-rule="evenodd" clip-rule="evenodd" d="M49.9014 303.683C51.1251 303.683 52.3942 303.683 53.618 303.683C58.5129 303.421 63.3625 302.722 68.2574 302.11C80.9934 300.449 93.6841 298.483 106.375 296.561L110.817 295.687L110.59 294.026C108.55 294.026 106.511 294.332 104.471 294.594C89.9223 296.299 75.5093 298.964 60.915 300.799L53.3007 301.629L50.0373 302.11L49.9014 303.683Z" fill="#F56C2C"/>
<path d="M631.632 66.4607C633.672 76.1174 636.165 85.5118 638.567 95.0374" stroke="white" stroke-width="0.1" stroke-linejoin="round"/>
<path d="M638.929 68.4707C640.833 73.8889 642.011 79.3945 643.462 84.9438" stroke="white" stroke-width="0.1" stroke-linejoin="round"/>
<path d="M647.767 76.9038C649.308 82.5842 650.894 88.2646 652.617 93.8576" stroke="white" stroke-width="0.1" stroke-linejoin="round"/>
<path d="M656.606 80.8802C655.744 78.04 654.838 75.1998 653.841 72.4033" stroke="white" stroke-width="0.1" stroke-linejoin="round"/>
<path d="M625.966 153.589C624.108 149.22 622.069 144.501 619.984 140.044" stroke="white" stroke-width="0.1" stroke-linejoin="round"/>
<path d="M628.369 144.938C629.819 148.084 631.36 151.23 632.901 154.289" stroke="white" stroke-width="0.1" stroke-linejoin="round"/>
<path d="M636.799 146.642C637.705 148.739 638.657 151.011 639.654 152.89" stroke="white" stroke-width="0.1" stroke-linejoin="round"/>
<path d="M535.908 247.622C537.223 253.433 538.673 259.245 540.441 265.1" stroke="white" stroke-width="0.1" stroke-linejoin="round"/>
<path d="M545.925 259.114C544.837 254.22 543.568 249.369 542.254 244.563" stroke="white" stroke-width="0.1" stroke-linejoin="round"/>
<path d="M548.191 247.229C549.097 251.161 550.14 255.05 551.228 258.939" stroke="white" stroke-width="0.1" stroke-linejoin="round"/>
<path d="M553.086 243.908C553.675 247.185 554.355 250.505 555.126 253.783" stroke="white" stroke-width="0.1" stroke-linejoin="round"/>
<path fill-rule="evenodd" clip-rule="evenodd" d="M544.067 308.446L544.611 310.412C545.472 313.034 546.378 315.568 547.33 318.146C547.602 318.976 547.874 319.807 548.236 320.637C548.599 321.467 548.735 321.685 549.007 322.21L549.823 321.904C549.802 321.686 549.802 321.466 549.823 321.248L549.279 319.719C548.191 316.792 547.239 313.82 546.106 310.98C545.743 310.062 545.336 309.189 544.928 308.315L544.067 308.446Z" fill="black"/>
<path fill-rule="evenodd" clip-rule="evenodd" d="M548.871 309.669L549.143 310.587C549.959 313.383 550.865 316.18 551.862 318.933C552.225 319.981 552.588 321.074 553.041 322.079L553.449 322.822L554.31 322.516L553.947 321.467L552.452 317.098C551.681 314.738 551.001 312.291 550.095 309.975L549.823 309.189L548.871 309.669Z" fill="black"/>
<path fill-rule="evenodd" clip-rule="evenodd" d="M552.769 308.795C552.769 309.538 553.177 310.281 553.403 311.024C553.902 312.772 554.491 314.52 555.08 316.267L556.848 321.205L557.754 320.899C556.576 317.622 555.624 314.257 554.446 310.98L553.494 308.533L552.769 308.795Z" fill="black"/>
<path fill-rule="evenodd" clip-rule="evenodd" d="M558.344 313.383C558.615 314.563 558.887 315.786 559.25 316.966C559.613 318.146 559.93 319.326 560.292 320.506L561.244 320.243L559.205 313.165L558.344 313.383Z" fill="black"/>
<path fill-rule="evenodd" clip-rule="evenodd" d="M673.965 104.869C674.237 105.655 674.508 106.486 674.826 107.316C676.004 110.549 677.228 113.783 678.497 116.973C679.766 120.162 680.627 122.347 681.806 124.969L682.667 124.619C681.911 122.813 681.186 121.022 680.491 119.245C678.814 114.875 677.318 110.768 675.551 106.573C675.279 105.918 674.962 105.262 674.645 104.607L673.965 104.869Z" fill="black"/>
<path fill-rule="evenodd" clip-rule="evenodd" d="M680.491 107.797C680.491 108.496 680.899 109.195 681.126 109.85C682.078 112.603 683.12 115.312 684.162 118.021C685.205 120.73 685.975 122.391 687.018 124.75L687.924 124.357C685.613 119.463 684.117 114.176 681.987 109.195L681.171 107.534L680.491 107.797Z" fill="black"/>
<path fill-rule="evenodd" clip-rule="evenodd" d="M682.531 100.893C682.531 100.893 682.531 101.111 682.531 101.286C682.642 101.664 682.794 102.03 682.984 102.379C684.797 106.486 686.111 110.681 687.516 114.875C687.67 115.28 687.852 115.674 688.06 116.055C688.109 116.173 688.187 116.278 688.287 116.361L689.692 115.837V115.443C689.567 114.922 689.4 114.41 689.193 113.914C688.332 111.423 687.335 108.977 686.292 106.486C685.25 103.995 684.706 102.859 683.8 101.024C683.8 101.024 683.8 100.762 683.8 100.674H683.482L682.531 100.893Z" fill="black"/>
<path fill-rule="evenodd" clip-rule="evenodd" d="M689.193 105.437C689.172 105.567 689.172 105.7 689.193 105.83C689.601 107.36 690.19 108.802 690.689 110.2C691.187 111.598 691.233 111.773 691.55 112.516C691.682 112.844 691.833 113.165 692.003 113.477L693 113.084L692.774 112.341C692.003 110.156 691.278 107.971 690.372 105.743C690.312 105.52 690.204 105.311 690.054 105.131C690.054 105.131 690.054 105.131 690.054 105.131L689.193 105.437Z" fill="black"/>
<path fill-rule="evenodd" clip-rule="evenodd" d="M690.689 101.723C690.663 101.867 690.663 102.015 690.689 102.16C691.233 103.383 692.049 104.476 692.593 105.655L693.545 105.306C693.298 104.586 692.994 103.885 692.638 103.209C692.366 102.64 692.094 102.116 691.777 101.592L691.46 101.242L690.689 101.723Z" fill="black"/>
</g>
<defs>
<clipPath id="clip0_2_1357">
<rect width="709" height="665" fill="white"/>
</clipPath>
</defs>
</svg>
